HIERARCHY
ROOT Hips
{
  OFFSET 5.84602e-005 68.8428 3.50346
  CHANNELS 6 Xposition Yposition Zposition Zrotation Xrotation Yrotation
  JOINT Spine
  {
    OFFSET 0 8.597 -4.6522
    CHANNELS 3 Zrotation Xrotation Yrotation
    JOINT Spine1
    {
      OFFSET 0 7.8454 0.4098
      CHANNELS 3 Zrotation Xrotation Yrotation
      JOINT Spine2
      {
        OFFSET 0 9.7078 -2.1609
        CHANNELS 3 Zrotation Xrotation Yrotation
        JOINT Neck
        {
          OFFSET 0 21.8761 -0.4549
          CHANNELS 3 Zrotation Xrotation Yrotation
          JOINT Head
          {
            OFFSET 0 12.3537 3.3602
            CHANNELS 3 Zrotation Xrotation Yrotation
            End Site
            {
              OFFSET 0.0001 18.9506 0.5657
            }
          }
        }
        JOINT LeftShoulder
        {
          OFFSET 2.2086 21.1115 7.2329
          CHANNELS 3 Zrotation Xrotation Yrotation
          JOINT LeftArm
          {
            OFFSET 13.1193 3.0282 -4.8998
            CHANNELS 3 Zrotation Xrotation Yrotation
            JOINT LeftForeArm
            {
              OFFSET 27.4081 -0.0973053 -0.2375
              CHANNELS 3 Zrotation Xrotation Yrotation
              JOINT LeftHand
              {
                OFFSET 22.8641 0.0662994 -0.1369
                CHANNELS 3 Zrotation Xrotation Yrotation
                JOINT LeftHandIndex1
                {
                  OFFSET 8.8614 0.775009 2.4612
                  CHANNELS 3 Zrotation Xrotation Yrotation
                  JOINT LeftHandIndex2
                  {
                    OFFSET 3.3146 -0.808304 0.5841
                    CHANNELS 3 Zrotation Xrotation Yrotation
                    JOINT LeftHandIndex3
                    {
                      OFFSET 2.2628 -0.552002 0.3989
                      CHANNELS 3 Zrotation Xrotation Yrotation
                      End Site
                      {
                        OFFSET 1.6102 -0.4807 0.2612
                      }
                    }
                  }
                }
                JOINT LeftHandMiddle1
                {
                  OFFSET 8.9937 0.895004 0.2143
                  CHANNELS 3 Zrotation Xrotation Yrotation
                  JOINT LeftHandMiddle2
                  {
                    OFFSET 4.0984 0.0113983 -0.0242
                    CHANNELS 3 Zrotation Xrotation Yrotation
                    JOINT LeftHandMiddle3
                    {
                      OFFSET 2.2716 0.00689697 -0.0138001
                      CHANNELS 3 Zrotation Xrotation Yrotation
                      End Site
                      {
                        OFFSET 2.0404 -0.1441 0.0027
                      }
                    }
                  }
                }
                JOINT LeftHandRing1
                {
                  OFFSET 8.5234 0.597198 -2.0164
                  CHANNELS 3 Zrotation Xrotation Yrotation
                  JOINT LeftHandRing2
                  {
                    OFFSET 3.7188 -0.188293 -0.2328
                    CHANNELS 3 Zrotation Xrotation Yrotation
                    JOINT LeftHandRing3
                    {
                      OFFSET 2.1191 -0.106598 -0.1332
                      CHANNELS 3 Zrotation Xrotation Yrotation
                      End Site
                      {
                        OFFSET 1.8737 -0.2304 -0.0886
                      }
                    }
                  }
                }
                JOINT LeftHandPinky1
                {
                  OFFSET 7.9094 -0.601089 -3.4825
                  CHANNELS 3 Zrotation Xrotation Yrotation
                  JOINT LeftHandPinky2
                  {
                    OFFSET 2.2874 -0.477005 -0.6314
                    CHANNELS 3 Zrotation Xrotation Yrotation
                    JOINT LeftHandPinky3
                    {
                      OFFSET 1.6774 -0.349396 -0.4633
                      CHANNELS 3 Zrotation Xrotation Yrotation
                      End Site
                      {
                        OFFSET 1.4888 -0.4091 -0.3416
                      }
                    }
                  }
                }
                JOINT LeftHandThumb1
                {
                  OFFSET 1.833 -1.3875 1.3896
                  CHANNELS 3 Zrotation Xrotation Yrotation
                  JOINT LeftHandThumb2
                  {
                    OFFSET 3.4129 -1.121 2.5732
                    CHANNELS 3 Zrotation Xrotation Yrotation
                    JOINT LeftHandThumb3
                    {
                      OFFSET 2.2474 -0.804199 1.6192
                      CHANNELS 3 Zrotation Xrotation Yrotation
                      End Site
                      {
                        OFFSET 1.6527 -0.5689 1.1317
                      }
                    }
                  }
                }
              }
            }
          }
        }
        JOINT RightShoulder
        {
          OFFSET -2.2086 21.1115 7.2329
          CHANNELS 3 Zrotation Xrotation Yrotation
          JOINT RightArm
          {
            OFFSET -13.1216 3.0287 -4.9007
            CHANNELS 3 Zrotation Xrotation Yrotation
            JOINT RightForeArm
            {
              OFFSET -27.4081 -0.0973053 -0.2375
              CHANNELS 3 Zrotation Xrotation Yrotation
              JOINT RightHand
              {
                OFFSET -22.8641 0.0664063 -0.1369
                CHANNELS 3 Zrotation Xrotation Yrotation
                JOINT RightHandIndex1
                {
                  OFFSET -8.8614 0.774994 2.4612
                  CHANNELS 3 Zrotation Xrotation Yrotation
                  JOINT RightHandIndex2
                  {
                    OFFSET -3.3146 -0.808304 0.5841
                    CHANNELS 3 Zrotation Xrotation Yrotation
                    JOINT RightHandIndex3
                    {
                      OFFSET -2.2628 -0.552002 0.3989
                      CHANNELS 3 Zrotation Xrotation Yrotation
                      End Site
                      {
                        OFFSET -1.6102 -0.4807 0.2612
                      }
                    }
                  }
                }
                JOINT RightHandMiddle1
                {
                  OFFSET -8.9937 0.894989 0.2143
                  CHANNELS 3 Zrotation Xrotation Yrotation
                  JOINT RightHandMiddle2
                  {
                    OFFSET -4.0984 0.0113983 -0.0242
                    CHANNELS 3 Zrotation Xrotation Yrotation
                    JOINT RightHandMiddle3
                    {
                      OFFSET -2.2716 0.00691223 -0.0138001
                      CHANNELS 3 Zrotation Xrotation Yrotation
                      End Site
                      {
                        OFFSET -2.0404 -0.1441 0.0027
                      }
                    }
                  }
                }
                JOINT RightHandRing1
                {
                  OFFSET -8.5234 0.597198 -2.0164
                  CHANNELS 3 Zrotation Xrotation Yrotation
                  JOINT RightHandRing2
                  {
                    OFFSET -3.7188 -0.188309 -0.2328
                    CHANNELS 3 Zrotation Xrotation Yrotation
                    JOINT RightHandRing3
                    {
                      OFFSET -2.1191 -0.106598 -0.1332
                      CHANNELS 3 Zrotation Xrotation Yrotation
                      End Site
                      {
                        OFFSET -1.8737 -0.2304 -0.0886
                      }
                    }
                  }
                }
                JOINT RightHandPinky1
                {
                  OFFSET -7.9094 -0.601105 -3.4825
                  CHANNELS 3 Zrotation Xrotation Yrotation
                  JOINT RightHandPinky2
                  {
                    OFFSET -2.2874 -0.477005 -0.6314
                    CHANNELS 3 Zrotation Xrotation Yrotation
                    JOINT RightHandPinky3
                    {
                      OFFSET -1.6774 -0.349396 -0.4633
                      CHANNELS 3 Zrotation Xrotation Yrotation
                      End Site
                      {
                        OFFSET -1.4888 -0.4091 -0.3416
                      }
                    }
                  }
                }
                JOINT RightHandThumb1
                {
                  OFFSET -1.833 -1.38751 1.3896
                  CHANNELS 3 Zrotation Xrotation Yrotation
                  JOINT RightHandThumb2
                  {
                    OFFSET -3.41299 -1.12099 2.5732
                    CHANNELS 3 Zrotation Xrotation Yrotation
                    JOINT RightHandThumb3
                    {
                      OFFSET -2.24741 -0.804108 1.6192
                      CHANNELS 3 Zrotation Xrotation Yrotation
                      End Site
                      {
                        OFFSET -1.6527 -0.5689 1.1317
                      }
                    }
                  }
                }
              }
            }
          }
        }
      }
    }
  }
  JOINT RightUpLeg
  {
    OFFSET -9.1966 3.8861 -0.7581
    CHANNELS 3 Zrotation Xrotation Yrotation
    JOINT RightLeg
    {
      OFFSET -0.7359 -41.0265 0
      CHANNELS 3 Zrotation Xrotation Yrotation
      JOINT RightFoot
      {
        OFFSET 0 -40.2855 0
        CHANNELS 3 Zrotation Xrotation Yrotation
        JOINT RightToeBase
        {
          OFFSET 0 -5.6122 11.7359
          CHANNELS 3 Zrotation Xrotation Yrotation
          End Site
          {
            OFFSET 0 0 7.8731
          }
        }
      }
    }
  }
  JOINT LeftUpLeg
  {
    OFFSET 9.1965 3.8864 -0.7581
    CHANNELS 3 Zrotation Xrotation Yrotation
    JOINT LeftLeg
    {
      OFFSET 0.7359 -41.0268 0
      CHANNELS 3 Zrotation Xrotation Yrotation
      JOINT LeftFoot
      {
        OFFSET 0 -40.2855 0
        CHANNELS 3 Zrotation Xrotation Yrotation
        JOINT LeftToeBase
        {
          OFFSET 0 -5.6122 11.7359
          CHANNELS 3 Zrotation Xrotation Yrotation
          End Site
          {
            OFFSET 0 0 7.8731
          }
        }
      }
    }
  }
}
MOTION
Frames:	6
Frame Time:	0.0333333
5.84602e-005 68.8428 3.50346 0 0 -0 0 0 -0 0 0 -0 0 0 -0 0 0 -0 0 0 -0 0 0 -0 0 0 -0 0 0 -0 0 0 -0 0 0 -0 0 0 -0 0 0 -0 0 0 -0 -0.0146107 -8.87603e-005 -2.63497e-007 2.99804e-018 -2.42657e-020 -1.42182e-022 0 0 -0 -0.0187562 -0.001176 5.858e-005 5.06224e-018 3.88251e-019 1.21329e-020 0 0 -0 -0.012269 -0.00324817 0.000675346 -1.74678e-018 3.88251e-019 -0 0 0 -0 0 0 -0 0 0 -0 0 0 -0 0 0 -0 0 0 -0 0 0 -0 0 0 -0 0 0 -0 0 0 -0 0 0 -0 0.0149955 -9.10982e-005 2.64101e-007 -9.69331e-018 1.21329e-020 -4.7394e-023 0 0 -0 0.0189956 -0.00119102 -5.96516e-005 -5.41541e-019 0 2.42657e-020 0 0 -0 0.0122698 -0.00324857 -0.000673756 -2.00796e-019 0 -1.94126e-019 0 0 -0 0 0 -0 0 0 -0 3.39842 1.33031 -0.0637918 -5.65207e-008 0.834868 -0.000436188 -3.39935 -2.16518 -0.0642563 -8.89002e-024 -1.18485e-023 -1.48106e-024 -3.39844 1.35642 0.0640283 -3.18788e-007 0.782166 -0.000588827 3.39931 -2.13858 0.0634662 1.1399e-023 0 -0 
-24.1227 9.42145 2.64056 0 0 -0 -0.0286544 7.94796 -0.00636454 -0.0572469 15.8959 -0.00879887 -0.057247 15.8959 -0.00879887 0.267527 0.26756 -0.000624102 4.30213e-008 0.37593 -7.5519e-009 -29.8416 9.27772 -31.9877 -18.0545 6.50058 -29.1197 -6.25214 1.19902 -11.0637 19.4977 0.00111653 -0.292923 3.18055e-015 -1.27222e-014 6.36111e-015 -6.36111e-015 0 -3.18055e-015 -0 -3.18055e-015 -0 3.18055e-015 -1.27222e-014 6.36111e-015 -0.0146376 -8.93075e-005 7.29605e-007 3.53113e-031 -6.36111e-015 3.18055e-015 3.18055e-015 -1.27222e-014 6.36111e-015 -0.0187606 -0.00117765 6.06548e-005 1.36544e-006 -6.78481e-007 2.25376e-006 3.18055e-015 -1.27222e-014 6.36111e-015 -0.012281 -0.0032522 0.000675809 -3.18055e-015 -3.18055e-015 6.36111e-015 3.18055e-015 -1.27222e-014 6.36111e-015 -6.36111e-015 0 -3.18055e-015 -0 -3.18055e-015 -0 29.3636 8.85988 32.8582 17.7591 6.50675 29.1273 8.53157 0.943796 7.3432 -22.4996 0.000992762 0.290799 -3.49075e-006 -1.47931e-006 1.61626e-006 6.58806e-006 -3.05408e-007 -4.97651e-007 -1.28427e-006 3.39337e-007 3.38734e-006 -3.49075e-006 -1.47931e-006 1.61626e-006 0.015 -9.1546e-005 3.4581e-006 -1.28441e-006 3.39781e-007 3.3873e-006 -3.49075e-006 -1.47931e-006 1.61626e-006 0.0190268 -0.00119549 -6.10187e-005 -1.28442e-006 3.3991e-007 3.3873e-006 -3.49075e-006 -1.47931e-006 1.61626e-006 0.0122754 -0.00324725 -0.000677895 -1.2843e-006 3.39724e-007 3.38735e-006 -3.49075e-006 -1.47931e-006 1.61626e-006 6.58806e-006 -3.05408e-007 -4.97651e-007 -1.28427e-006 3.39337e-007 3.38734e-006 -4.23059 -49.9394 -14.1341 -174.76 28.9413 170.101 -3.91123 50.6233 -10.0563 8.15886e-007 -4.73136e-008 1.14354e-006 4.22914 -49.9277 14.1301 174.751 28.9509 -170.104 3.91008 50.6228 10.0525 1.99124e-007 -2.70339e-008 -9.29672e-007 
-24.1227 9.42145 2.64056 0 0 -0 -0.0286544 7.94796 -0.00636454 -0.0572469 15.8959 -0.00879888 -0.057247 15.8959 -0.00879887 0.53666 0.536611 -0.0267563 5.11768e-008 0.753476 -7.34218e-008 -29.8416 9.2777 -31.9877 -18.0545 6.50058 -29.1198 -6.25216 1.19902 -11.0637 19.4977 0.00111346 -0.292925 -3.25777e-006 -2.17795e-007 3.38732e-007 -3.18055e-015 1.27222e-014 1.27222e-014 -1.27132e-006 -1.04122e-006 -3.87603e-006 -3.25777e-006 -2.17795e-007 3.38732e-007 -0.0146191 -9.2e-005 -3.50697e-006 -1.27095e-006 -1.04073e-006 -3.87617e-006 -3.25777e-006 -2.17795e-007 3.38732e-007 -0.0187304 -0.00117819 6.00533e-005 -1.27089e-006 -1.04056e-006 -3.87619e-006 -3.25777e-006 -2.17795e-007 3.38732e-007 -0.0122843 -0.00325242 0.000676148 9.50131e-008 -1.71929e-006 -1.62229e-006 -3.25777e-006 -2.17795e-007 3.38732e-007 -3.18055e-015 1.27222e-014 1.27222e-014 -1.27132e-006 -1.04122e-006 -3.87603e-006 29.3635 8.85988 32.8583 17.759 6.50675 29.1273 8.53158 0.943794 7.34319 -22.4996 0.000992821 0.290792 -4.57829e-006 4.92039e-007 3.63617e-006 -6.43255e-006 3.21888e-006 2.25859e-006 -4.34035e-006 8.42595e-007 -8.59641e-007 -4.57829e-006 4.92039e-007 3.63617e-006 0.0149901 -9.23677e-005 1.07828e-006 -2.57393e-006 1.4397e-006 -5.64564e-007 -4.57829e-006 4.92039e-007 3.63617e-006 0.019055 -0.00119192 -5.78227e-005 -4.34287e-006 8.42607e-007 -8.59728e-007 -4.57829e-006 4.92039e-007 3.63617e-006 0.0122624 -0.00324372 -0.000675138 -4.342e-006 8.42904e-007 -8.59519e-007 -4.57829e-006 4.92039e-007 3.63617e-006 -6.43255e-006 3.21888e-006 2.25859e-006 -4.34035e-006 8.42595e-007 -8.59641e-007 -4.23059 -49.9394 -14.1341 -174.76 28.9413 170.101 -3.91123 50.6233 -10.0563 8.15886e-007 -4.73136e-008 1.14354e-006 4.22921 -49.9277 14.1302 174.751 28.9509 -170.104 3.91009 50.6229 10.0525 -8.3011e-007 6.70503e-008 -6.6396e-007 
-24.1227 9.42145 2.64056 0 0 -0 -0.0286544 7.94796 -0.00636454 -0.0572469 15.8959 -0.00879887 -0.057247 15.8959 -0.00879887 0.806032 0.805361 -0.0541644 9.63703e-008 1.13116 4.99442e-008 -29.8416 9.27771 -31.9877 -18.0545 6.5006 -29.1198 -6.25215 1.19903 -11.0637 19.4977 0.0011137 -0.292919 1.24777e-006 4.3612e-007 -3.36693e-006 -5.09102e-007 -1.69567e-006 2.5191e-006 1.24777e-006 4.3612e-007 -3.36693e-006 1.24777e-006 4.3612e-007 -3.36693e-006 -0.0146458 -9.42043e-005 -1.57146e-006 1.24793e-006 4.36551e-007 -3.36688e-006 1.24777e-006 4.3612e-007 -3.36693e-006 -0.0187744 -0.00117775 5.79431e-005 1.24794e-006 4.36684e-007 -3.36687e-006 1.24777e-006 4.3612e-007 -3.36693e-006 -0.0122869 -0.00325919 0.000690364 1.24781e-006 4.36508e-007 -3.36693e-006 1.24777e-006 4.3612e-007 -3.36693e-006 -5.09102e-007 -1.69567e-006 2.5191e-006 1.24777e-006 4.3612e-007 -3.36693e-006 29.3635 8.85988 32.8582 17.7591 6.50676 29.1273 8.53157 0.943789 7.34318 -22.4996 0.000993175 0.290789 1.52781e-006 -7.49883e-007 -5.44085e-007 1.76621e-006 5.97179e-007 2.9526e-007 -1.24305e-006 -9.42125e-007 2.58971e-007 1.52781e-006 -7.49883e-007 -5.44085e-007 0.0149724 -9.12625e-005 5.70905e-006 -1.24412e-006 -9.42084e-007 2.59095e-007 1.52781e-006 -7.49883e-007 -5.44085e-007 0.0189838 -0.00118861 -5.79444e-005 5.24577e-007 -3.44942e-007 5.54279e-007 1.52781e-006 -7.49883e-007 -5.44085e-007 0.0122438 -0.00324606 -0.000678794 -1.24392e-006 -9.41872e-007 2.59156e-007 1.52781e-006 -7.49883e-007 -5.44085e-007 1.76621e-006 5.97179e-007 2.9526e-007 -1.24305e-006 -9.42125e-007 2.58971e-007 -4.23059 -49.9394 -14.1341 -174.76 28.9413 170.101 -3.91123 50.6233 -10.0563 2.05847e-007 1.8817e-008 -5.31415e-008 4.22913 -49.9277 14.1301 174.751 28.9509 -170.104 3.91008 50.6228 10.0525 -2.1257e-007 1.05999e-008 -8.23387e-007 
-24.1227 9.42145 2.64056 0 0 -0 -0.0286544 7.94796 -0.00636454 -0.0572469 15.8959 -0.00879888 -0.057247 15.8959 -0.00879887 1.07563 1.07404 -0.0828428 1.45603e-007 1.50898 -7.81907e-008 -29.8416 9.27771 -31.9877 -18.0545 6.50058 -29.1197 -6.25214 1.19902 -11.0637 19.4977 0.00111105 -0.292925 -3.76687e-006 -1.91346e-006 2.85783e-006 -3.76687e-006 -1.91346e-006 2.85783e-006 7.38672e-007 -1.25955e-006 -8.47834e-007 -3.76687e-006 -1.91346e-006 2.85783e-006 -0.0146256 -9.01105e-005 6.03542e-006 7.38639e-007 -1.25944e-006 -8.47995e-007 -3.76687e-006 -1.91346e-006 2.85783e-006 -0.0187818 -0.00118281 6.69507e-005 7.38621e-007 -1.25941e-006 -8.48048e-007 -3.76687e-006 -1.91346e-006 2.85783e-006 -0.012304 -0.0032601 0.000680748 7.38613e-007 -1.25947e-006 -8.47988e-007 -3.76687e-006 -1.91346e-006 2.85783e-006 -3.76687e-006 -1.91346e-006 2.85783e-006 7.38672e-007 -1.25955e-006 -8.47834e-007 29.3635 8.85988 32.8582 17.7591 6.50675 29.1273 8.53154 0.943791 7.34317 -22.4996 0.000993055 0.290801 -4.57829e-006 4.92039e-007 3.63617e-006 3.18055e-015 -9.54166e-015 -6.36111e-015 -3.29403e-006 1.52704e-007 2.48825e-007 -4.57829e-006 4.92039e-007 3.63617e-006 0.0149594 -9.03024e-005 2.20912e-006 -3.29378e-006 1.52735e-007 2.48807e-007 -4.57829e-006 4.92039e-007 3.63617e-006 0.0190446 -0.00119239 -6.07587e-005 -3.29371e-006 1.52723e-007 2.48832e-007 -4.57829e-006 4.92039e-007 3.63617e-006 0.0122411 -0.00324177 -0.000675309 -1.52582e-006 7.49406e-007 5.43939e-007 -4.57829e-006 4.92039e-007 3.63617e-006 3.18055e-015 -9.54166e-015 -6.36111e-015 -3.29403e-006 1.52704e-007 2.48825e-007 -4.23058 -49.9393 -14.1341 -174.76 28.9413 170.101 -3.91122 50.6233 -10.0563 2.74393e-007 -6.17112e-008 -2.22972e-006 4.22921 -49.9278 14.1302 174.751 28.951 -170.104 3.91011 50.623 10.0525 -1.92401e-007 3.52508e-008 1.8062e-006 
-24.1227 9.42145 2.64056 0 0 -0 -0.0286544 7.94796 -0.00636454 -0.0572469 15.8959 -0.00879887 -0.057247 15.8959 -0.00879887 1.3455 1.34289 -0.112804 1.47999e-007 1.88692 1.45968e-007 -29.8416 9.27772 -31.9877 -18.0545 6.50059 -29.1198 -6.25215 1.19902 -11.0637 19.4977 0.00111535 -0.292923 -3.25777e-006 -2.17795e-007 3.38732e-007 -3.99644e-006 1.04175e-006 1.18657e-006 -1.89045e-006 -8.95789e-007 2.59261e-006 -3.25777e-006 -2.17795e-007 3.38732e-007 -0.0146505 -9.1902e-005 4.64176e-007 -3.25752e-006 -2.17837e-007 3.38707e-007 -3.25777e-006 -2.17795e-007 3.38732e-007 -0.018775 -0.00117772 6.20855e-005 -3.25745e-006 -2.17829e-007 3.38729e-007 -3.25777e-006 -2.17795e-007 3.38732e-007 -0.0122992 -0.00325419 0.000680095 -3.25755e-006 -2.17757e-007 3.38789e-007 -3.25777e-006 -2.17795e-007 3.38732e-007 -3.99644e-006 1.04175e-006 1.18657e-006 -1.89045e-006 -8.95789e-007 2.59261e-006 29.3636 8.85988 32.8582 17.7591 6.50675 29.1273 8.53157 0.943796 7.3432 -22.4996 0.000992762 0.290799 -3.49075e-006 -1.47931e-006 1.61626e-006 6.58806e-006 -3.05408e-007 -4.97651e-007 -1.28427e-006 3.39337e-007 3.38734e-006 -3.49075e-006 -1.47931e-006 1.61626e-006 0.015 -9.1546e-005 3.4581e-006 -1.28441e-006 3.39781e-007 3.3873e-006 -3.49075e-006 -1.47931e-006 1.61626e-006 0.0190268 -0.00119549 -6.10187e-005 -1.28442e-006 3.3991e-007 3.3873e-006 -3.49075e-006 -1.47931e-006 1.61626e-006 0.0122754 -0.00324725 -0.000677895 -1.2843e-006 3.39724e-007 3.38735e-006 -3.49075e-006 -1.47931e-006 1.61626e-006 6.58806e-006 -3.05408e-007 -4.97651e-007 -1.28427e-006 3.39337e-007 3.38734e-006 -4.23059 -49.9394 -14.1341 -174.76 28.9413 170.101 -3.91123 50.6233 -10.0563 8.15886e-007 -4.73136e-008 1.14354e-006 4.22914 -49.9277 14.1301 174.751 28.9509 -170.104 3.91008 50.6228 10.0525 1.99124e-007 -2.70339e-008 -9.29672e-007 
